<svg xmlns="http://www.w3.org/2000/svg" width="485" height="131" fill="none"><path fill="#fff" d="M38.673 67.17v-1.506c0-8.136-4.42-12.154-12.556-12.154-5.525 0-10.648 2.21-13.963 5.524l-3.817-4.52c3.818-3.817 10.447-6.73 18.483-6.73 10.146 0 18.282 5.625 18.282 17.077v20.592c0 3.616.301 7.935.804 10.547h-6.128c-.402-2.31-.703-5.123-.703-7.634h-.2c-4.32 6.228-9.544 8.84-17.077 8.84-7.132 0-16.273-3.818-16.273-14.264 0-14.465 15.971-15.771 33.148-15.771Zm0 5.325h-2.009c-11.15 0-24.108 1.205-24.108 10.145 0 6.73 5.726 8.94 11.05 8.94 9.643 0 15.067-7.232 15.067-15.57v-3.515Zm23.102-23.506h6.529c.2 2.512.402 6.027.402 8.036h.2c2.612-5.424 9.443-9.241 16.073-9.241 11.953 0 17.88 7.735 17.88 19.387V96h-6.83V69.984c0-9.845-2.914-16.474-12.758-16.474-7.232 0-14.264 5.826-14.264 18.382V96h-6.83V59.336c0-2.511-.1-7.132-.402-10.347Zm96.919 39.075c-4.018 5.927-11.049 9.141-17.779 9.141-14.666 0-24.309-10.848-24.309-24.71s9.643-24.711 24.309-24.711c6.73 0 13.761 3.214 17.779 9.342h.201V20.06h6.831V96h-6.831v-7.936h-.201Zm-34.856-15.57c0 10.448 6.429 18.885 17.78 18.885 10.547 0 18.081-8.136 18.081-18.884 0-10.749-7.534-18.985-18.081-18.985-11.351 0-17.78 8.538-17.78 18.985Zm199.827-15.469c2.712-5.424 8.739-9.241 15.47-9.241 5.123 0 11.35 1.909 14.464 9.944 3.215-6.428 8.94-9.944 16.474-9.944 11.954 0 17.88 7.735 17.88 19.387V96h-6.83V69.984c0-9.845-3.315-16.474-12.155-16.474-9.844 0-13.36 8.739-13.36 17.478V96h-6.83V68.577c0-9.14-2.21-15.067-11.351-15.067-6.529 0-13.661 5.826-13.661 18.382V96h-6.831V59.336c0-2.511-.1-7.132-.402-10.347h6.53c.2 2.512.401 6.027.401 8.036h.201Zm85.243 11.854h32.044c-.402-8.84-5.826-15.37-15.57-15.37-9.141 0-15.871 7.334-16.474 15.37Zm38.975 2.21c0 .903 0 2.008-.1 3.214h-38.975c.201 9.442 7.534 17.076 17.177 17.076 7.031 0 12.456-3.917 15.067-8.136l5.123 4.018c-5.524 7.031-12.455 9.944-20.19 9.944-13.963 0-24.309-10.547-24.309-24.71 0-14.164 10.346-24.711 23.706-24.711 14.766 0 22.501 10.447 22.501 23.304Zm35.365-22.1v5.726h-13.259v27.423c0 7.031 2.913 8.639 7.031 8.639 1.909 0 4.119-.603 5.927-1.507l.301 5.926c-2.411.904-4.922 1.407-8.036 1.407-5.023 0-12.054-2.21-12.054-12.556V54.714h-9.744v-5.726h9.744V35.73h6.831v13.26h13.259Z"/><mask id="a" width="130" height="55" x="175" y="45" fill="#000" maskUnits="userSpaceOnUse"><path fill="#fff" d="M175 45h130v55H175z"/><path d="M178.612 48.99h7.333l11.35 38.17h.201l12.657-38.17h6.63l12.857 38.17h.201l11.251-38.17h7.232L233.457 96h-7.433l-12.556-38.07h-.201L200.912 96h-7.434l-14.866-47.01Zm84.668 19.889h32.044c-.402-8.84-5.826-15.37-15.57-15.37-9.141 0-15.871 7.334-16.474 15.37Zm38.975 2.21c0 .903 0 2.008-.1 3.214H263.18c.201 9.442 7.534 17.076 17.177 17.076 7.031 0 12.456-3.917 15.067-8.136l5.123 4.018c-5.524 7.031-12.455 9.944-20.19 9.944-13.963 0-24.309-10.547-24.309-24.71 0-14.164 10.346-24.711 23.706-24.711 14.766 0 22.501 10.447 22.501 23.304Z"/></mask><path fill="#FF017E" d="M178.612 48.99h7.333l11.35 38.17h.201l12.657-38.17h6.63l12.857 38.17h.201l11.251-38.17h7.232L233.457 96h-7.433l-12.556-38.07h-.201L200.912 96h-7.434l-14.866-47.01Zm84.668 19.889h32.044c-.402-8.84-5.826-15.37-15.57-15.37-9.141 0-15.871 7.334-16.474 15.37Zm38.975 2.21c0 .903 0 2.008-.1 3.214H263.18c.201 9.442 7.534 17.076 17.177 17.076 7.031 0 12.456-3.917 15.067-8.136l5.123 4.018c-5.524 7.031-12.455 9.944-20.19 9.944-13.963 0-24.309-10.547-24.309-24.71 0-14.164 10.346-24.711 23.706-24.711 14.766 0 22.501 10.447 22.501 23.304Z"/><path fill="#FF017E" d="M178.612 48.99v-2h-2.73l.823 2.602 1.907-.603Zm7.333 0 1.917-.57-.426-1.43h-1.491v2Zm11.35 38.17-1.917.57.426 1.43h1.491v-2Zm.201 0v2h1.444l.455-1.37-1.899-.63Zm12.657-38.17v-2h-1.444l-.454 1.37 1.898.63Zm6.63 0 1.895-.639-.459-1.362h-1.436v2Zm12.857 38.17-1.895.639.459 1.361h1.436v-2Zm.201 0v2h1.496l.423-1.434-1.919-.566Zm11.251-38.17v-2h-1.496l-.423 1.434 1.919.565Zm7.232 0 1.907.602.823-2.603h-2.73v2ZM233.457 96v2h1.466l.441-1.397-1.907-.603Zm-7.433 0-1.899.626.453 1.374h1.446v-2Zm-12.556-38.07 1.899-.627-.453-1.373h-1.446v2Zm-.201 0v-2h-1.454l-.448 1.382 1.902.617ZM200.912 96v2h1.453l.449-1.383-1.902-.617Zm-7.434 0-1.907.603.442 1.397h1.465v-2Zm-14.866-45.01h7.333v-4h-7.333v4Zm5.416-1.43 11.35 38.17 3.834-1.14-11.35-38.17-3.834 1.14Zm13.267 39.6h.201v-4h-.201v4Zm2.1-1.37 12.656-38.171-3.796-1.26-12.657 38.172 3.797 1.259Zm10.758-36.8h6.63v-4h-6.63v4Zm4.734-1.362 12.858 38.17 3.791-1.276-12.858-38.171-3.791 1.277ZM229.64 89.16h.201v-4h-.201v4Zm2.12-1.434 11.25-38.171-3.837-1.131-11.25 38.171 3.837 1.13Zm9.332-36.737h7.232v-4h-7.232v4Zm5.325-2.603L231.55 95.397l3.814 1.206 14.867-47.01-3.814-1.207ZM233.457 94h-7.433v4h7.433v-4Zm-5.534 1.374-12.556-38.071-3.799 1.253 12.557 38.07 3.798-1.252ZM213.468 55.93h-.201v4h.201v-4Zm-2.103 1.382-12.356 38.07 3.805 1.235 12.355-38.07-3.804-1.235ZM200.912 94h-7.434v4h7.434v-4Zm-5.527 1.397-14.866-47.01-3.814 1.205 14.866 47.011 3.814-1.206Zm67.895-26.519-1.994-.15-.161 2.15h2.155v-2Zm32.044 0v2h2.093l-.095-2.09-1.998.09Zm6.831 5.425v2h1.84l.153-1.834-1.993-.166Zm-38.975 0v-2h-2.043l.043 2.042 2-.042Zm32.244 8.94 1.235-1.574-1.759-1.38-1.176 1.901 1.7 1.053Zm5.123 4.018 1.573 1.236 1.237-1.575-1.575-1.235-1.235 1.574ZM263.28 70.879h32.044v-4H263.28v4Zm34.042-2.091c-.218-4.797-1.809-9.135-4.836-12.293-3.049-3.18-7.388-4.985-12.732-4.985v4c4.4 0 7.645 1.46 9.845 3.753 2.221 2.318 3.543 5.663 3.727 9.706l3.996-.181ZM279.754 51.51c-10.282 0-17.794 8.237-18.468 17.219l3.989.3c.532-7.09 6.48-13.52 14.479-13.52v-4Zm20.501 19.578c0 .909-.001 1.937-.094 3.049l3.987.332c.108-1.299.107-2.48.107-3.38h-4Zm1.9 1.215H263.18v4h38.975v-4Zm-40.975 2.042c.223 10.475 8.391 19.034 19.177 19.034v-4c-8.501 0-14.999-6.709-15.178-15.119l-3.999.085Zm19.177 19.034c7.794 0 13.83-4.338 16.768-9.083l-3.401-2.106c-2.286 3.692-7.098 7.19-13.367 7.19v4Zm13.833-8.562 5.123 4.018 2.469-3.148-5.123-4.018-2.469 3.148Zm4.785 1.208c-5.128 6.527-11.468 9.18-18.618 9.18v4c8.319 0 15.841-3.172 21.763-10.709l-3.145-2.47Zm-18.618 9.18c-12.826 0-22.309-9.619-22.309-22.71h-4c0 15.235 11.209 26.71 26.309 26.71v-4Zm-22.309-22.71c0-13.125 9.516-22.711 21.706-22.711v-4c-14.529 0-25.706 11.509-25.706 26.71h4Zm21.706-22.711c6.879 0 11.939 2.415 15.298 6.165 3.388 3.781 5.203 9.099 5.203 15.14h4c0-6.818-2.052-13.152-6.223-17.809-4.2-4.688-10.39-7.496-18.278-7.496v4Z" mask="url(#a)"/><path fill="#FF017E" d="M6 0h479v11H6z"/></svg>