<svg xmlns="http://www.w3.org/2000/svg" width="278" height="278" fill="none"><circle cx="139.001" cy="138.881" r="138.54" fill="#fff"/><mask id="a" width="82" height="99" x="95.695" y="108.21" fill="#000" maskUnits="userSpaceOnUse"><path fill="#fff" d="M95.695 108.21h82v99h-82z"/><path d="M161.948 147.112v-2.932c0-15.832-8.6-23.651-24.432-23.651-10.751 0-20.719 4.301-27.17 10.751l-7.427-8.796c7.427-7.428 20.328-13.096 35.965-13.096 19.741 0 35.574 10.946 35.574 33.229v40.069c0 7.037.586 15.442 1.564 20.524h-11.924c-.781-4.496-1.368-9.969-1.368-14.855h-.391c-8.405 12.118-18.569 17.201-33.228 17.201-13.878 0-31.665-7.428-31.665-27.756 0-28.147 31.078-30.688 64.502-30.688Zm0 10.36h-3.909c-21.696 0-46.911 2.345-46.911 19.741 0 13.096 11.141 17.397 21.501 17.397 18.764 0 29.319-14.074 29.319-30.297v-6.841Z"/></mask><path fill="#5B503C" d="M161.948 147.112v-2.932c0-15.832-8.6-23.651-24.432-23.651-10.751 0-20.719 4.301-27.17 10.751l-7.427-8.796c7.427-7.428 20.328-13.096 35.965-13.096 19.741 0 35.574 10.946 35.574 33.229v40.069c0 7.037.586 15.442 1.564 20.524h-11.924c-.781-4.496-1.368-9.969-1.368-14.855h-.391c-8.405 12.118-18.569 17.201-33.228 17.201-13.878 0-31.665-7.428-31.665-27.756 0-28.147 31.078-30.688 64.502-30.688Zm0 10.36h-3.909c-21.696 0-46.911 2.345-46.911 19.741 0 13.096 11.141 17.397 21.501 17.397 18.764 0 29.319-14.074 29.319-30.297v-6.841Z"/><path fill="#fff" d="M161.948 147.112v.767h.767v-.767h-.767Zm-51.602-15.832-.586.495.539.637.59-.59-.543-.542Zm-7.427-8.796-.543-.542-.498.498.455.539.586-.495Zm73.103 80.726v.767h.928l-.175-.912-.753.145Zm-11.924 0-.755.131.11.636h.645v-.767Zm-1.368-14.855h.767v-.767h-.767v.767Zm-.391 0v-.767h-.401l-.229.33.63.437Zm-.391-30.883h.767v-.767h-.767v.767Zm.767-10.36v-2.932h-1.534v2.932h1.534Zm0-2.932c0-8.051-2.189-14.195-6.517-18.318-4.321-4.116-10.65-6.1-18.682-6.1v1.534c7.8 0 13.687 1.926 17.624 5.677 3.93 3.744 6.041 9.426 6.041 17.207h1.534Zm-25.199-24.418c-10.946 0-21.112 4.376-27.712 10.976l1.085 1.084c6.3-6.3 16.071-10.526 26.627-10.526v-1.534Zm-26.584 11.023-7.427-8.796-1.172.99 7.427 8.796 1.172-.99Zm-7.471-7.759c7.264-7.264 19.959-12.871 35.423-12.871v-1.534c-15.811 0-28.916 5.73-36.508 13.321l1.085 1.084Zm35.423-12.871c9.737 0 18.437 2.699 24.69 8.073 6.237 5.359 10.117 13.444 10.117 24.389h1.534c0-11.338-4.036-19.868-10.651-25.552-6.599-5.67-15.685-8.444-25.69-8.444v1.534Zm34.807 32.462v40.069h1.534v-40.069h-1.534Zm0 40.069c0 7.062.587 15.52 1.577 20.669l1.507-.29c-.965-5.015-1.55-13.367-1.55-20.379h-1.534Zm2.331 19.757h-11.924v1.534h11.924v-1.534Zm-11.168.636c-.776-4.463-1.357-9.891-1.357-14.724h-1.534c0 4.94.592 10.458 1.38 14.986l1.511-.262Zm-2.124-15.491h-.391v1.534h.391v-1.534Zm-1.021.33c-4.147 5.979-8.7 10.183-13.989 12.899-5.29 2.717-11.369 3.972-18.609 3.972v1.533c7.419 0 13.752-1.286 19.31-4.14 5.559-2.855 10.29-7.251 14.548-13.39l-1.26-.874Zm-32.598 16.871c-6.821 0-14.57-1.829-20.592-6.113-5.99-4.262-10.306-10.973-10.306-20.876h-1.534c0 10.425 4.577 17.591 10.95 22.126 6.341 4.511 14.424 6.396 21.482 6.396v-1.533ZM98.213 177.8c0-6.886 1.896-12.143 5.204-16.184 3.318-4.052 8.108-6.943 13.998-8.99 11.808-4.105 27.807-4.747 44.533-4.747v-1.534c-16.697 0-32.949.629-45.037 4.832-6.058 2.106-11.127 5.127-14.68 9.468-3.564 4.352-5.552 9.967-5.552 17.155h1.534Zm63.735-21.095h-3.909v1.534h3.909v-1.534Zm-3.909 0c-10.853 0-22.681.583-31.816 3.381-4.571 1.4-8.53 3.372-11.355 6.158-2.845 2.807-4.507 6.41-4.507 10.969h1.534c0-4.139 1.49-7.352 4.05-9.877 2.582-2.546 6.282-4.422 10.727-5.784 8.897-2.724 20.523-3.313 31.367-3.313v-1.534Zm-47.678 20.508c0 6.806 2.915 11.395 7.208 14.248 4.251 2.825 9.793 3.916 15.06 3.916v-1.534c-5.093 0-10.301-1.06-14.211-3.659-3.867-2.571-6.523-6.681-6.523-12.971h-1.534Zm22.268 18.164c9.588 0 17.129-3.603 22.267-9.319 5.127-5.706 7.819-13.471 7.819-21.745h-1.534c0 7.949-2.585 15.333-7.426 20.719-4.831 5.376-11.95 8.811-21.126 8.811v1.534Zm30.086-31.064v-6.841h-1.534v6.841h1.534Z" mask="url(#a)"/><path fill="#FF017E" d="M97.438 65.887h84.363v15.339H97.438z"/></svg>